<svg width="59" height="58" viewBox="0 0 59 58" fill="none" xmlns="http://www.w3.org/2000/svg">
<path fill-rule="evenodd" clip-rule="evenodd" d="M48.4643 51.5135C53.0286 47.8981 56.3915 43.0435 58.1276 37.5637L46.7963 34.1469C45.7528 37.4405 43.7316 40.3582 40.9884 42.5311C38.5718 44.4452 35.6905 45.7057 32.6333 46.1974V25.3667H12.2528C12.8527 22.6208 14.126 20.0473 15.9754 17.8723C18.2314 15.219 21.2433 13.278 24.6301 12.2946C28.0169 11.3112 31.6265 11.3297 35.0026 12.3476L38.5049 1.29326C32.8877 -0.400476 26.8819 -0.431202 21.2468 1.20497C15.6117 2.84113 10.6005 6.07071 6.84687 10.4853C3.23378 14.7346 0.942079 19.8981 0.234241 25.3667H6.4812e-05V28.9395C-2.16126e-05 28.9799 -2.15955e-05 29.0203 6.4812e-05 29.0607V58H29.6915C24.7767 57.9944 19.9242 56.7995 15.5763 54.5037C10.4058 51.7734 6.18127 47.6087 3.43698 42.5362C1.18239 38.3688 0.0100873 33.7425 6.4812e-05 29.0607V28.9395C0.0021557 27.9628 0.0548421 26.9838 0.15885 26.0062C0.181574 25.7926 0.206709 25.5794 0.234241 25.3667H12.2528C12.1209 25.9705 12.0215 26.5826 11.9558 27.2007C11.591 30.6295 12.2766 34.0869 13.926 37.1355C15.5754 40.1842 18.1144 42.6873 21.222 44.3283C24.3296 45.9692 27.8662 46.6743 31.3846 46.3544C31.8036 46.3163 32.2201 46.2639 32.6333 46.1974V57.861C32.584 57.8658 32.5346 57.8704 32.4852 57.8749C31.5771 57.9574 30.6683 57.999 29.7615 58H32.6333V57.861C38.433 57.3052 43.9385 55.0983 48.4643 51.5135Z" fill="#F53D3D"/>
</svg>
